<?xml version="1.0" encoding="utf-8"?>
<!-- Generator: Adobe Illustrator 14.0.0, SVG Export Plug-In . SVG Version: 6.00 Build 43363)  -->
<!DOCTYPE svg PUBLIC "-//W3C//DTD SVG 1.1//EN" "http://www.w3.org/Graphics/SVG/1.1/DTD/svg11.dtd">
<svg version="1.1" id="Warstwa_1" xmlns="http://www.w3.org/2000/svg" xmlns:xlink="http://www.w3.org/1999/xlink" x="0px" y="0px"
	 width="180px" height="60px" viewBox="0 0 180 60" enable-background="new 0 0 180 60" xml:space="preserve">
<g>
	<path d="M54.256,5.061c2.595,0,4.773,1.04,6.536,3.119c1.048,1.181,1.572,2.52,1.572,4.017c-0.083,0.881-0.316,1.638-0.698,2.271
		c-1.081,1.414-2.046,1.747-2.895,0.998c-0.815-0.815-0.799-1.697,0.05-2.645c0.715-0.865,0.569-1.909-0.437-3.131
		c-1.006-1.223-2.383-1.9-4.129-2.034c-2.479-0.183-5.023,0.682-7.635,2.595c-2.611,1.913-4.732,4.632-6.362,8.159
		c-1.447,3.543-2.162,6.812-2.146,9.805c0.149,3.792,0.931,6.753,2.345,8.882c1.729,2.096,3.817,3.385,6.262,3.867
		c3.077,0.283,6.112-0.973,9.106-3.768c0.965-0.914,1.78-1.139,2.445-0.673c0.532,0.615,0.433,1.455-0.3,2.52
		c-3.692,3.077-6.919,4.616-9.68,4.616c-3.925-0.033-7.036-1.348-9.331-3.942s-3.493-6.354-3.593-11.277
		c0.116-3.909,0.898-7.601,2.345-11.078c1.514-3.593,3.751-6.52,6.711-8.782C47.386,6.316,50.663,5.144,54.256,5.061z"/>
	<path d="M61.769,29.063c0.433-0.333,0.865-0.499,1.298-0.499c0.149,0,0.299,0.017,0.448,0.05c0.616,0.149,0.915,0.499,0.898,1.048
		c2.229-0.299,3.635-0.167,4.217,0.399c0.549,0.583,0.607,1.831,0.175,3.743c-0.683,2.762-0.985,4.541-0.911,5.34
		c0.075,0.798,0.396,1.205,0.961,1.223c0.532-0.018,1.318-0.491,2.357-1.423c1.04-0.932,2.532-2.387,4.479-4.366
		c0.998-0.316,1.497-0.017,1.497,0.898c0,0.216-0.025,0.424-0.075,0.623c-2.195,2.246-3.967,3.976-5.314,5.189
		c-1.347,1.198-2.444,1.797-3.293,1.797c-1.114-0.033-1.913-0.441-2.396-1.223c-0.565-1.031-0.757-2.395-0.573-4.092
		c0.083-0.698,0.337-1.821,0.761-3.368s0.578-2.47,0.462-2.769c-0.15-0.316-0.998-0.35-2.545-0.101l-4.766,5.515
		c-0.948,0.115-1.422-0.35-1.422-1.398l3.768-4.44c-0.35-0.233-0.528-0.553-0.537-0.96C61.249,29.84,61.419,29.445,61.769,29.063z"
		/>
	<path d="M78.784,30.572c0.766-0.408,1.805-0.62,3.119-0.636c1.015,0.05,1.954,0.357,2.819,0.923
		c0.116-0.616,0.449-0.932,0.998-0.948c0.682,0.133,0.981,0.541,0.897,1.222l-1.696,8.209c-0.033,1.031,0.424,1.23,1.372,0.599
		c2.178-1.597,4.249-3.409,6.212-5.438c1.081-0.3,1.621-0.018,1.621,0.848c0,0.217-0.033,0.466-0.1,0.748
		c-2.013,2.113-4.258,4.109-6.735,5.988c-0.565,0.482-1.189,0.757-1.871,0.823c-0.116,0.017-0.225,0.025-0.324,0.025
		c-0.565,0-1.081-0.158-1.547-0.474c-0.582-0.383-0.882-0.907-0.898-1.572c-0.898,1.314-2.37,1.971-4.416,1.971
		c-1.763-0.166-2.919-0.923-3.468-2.271c-0.267-0.798-0.399-1.604-0.399-2.42c0-0.915,0.175-1.838,0.524-2.77
		c0.599-1.431,1.205-2.491,1.821-3.181C77.329,31.528,78.02,30.979,78.784,30.572z M80.331,32.455
		c-1.414,0.633-2.503,1.946-3.269,3.942c-0.632,1.946-0.365,3.21,0.799,3.792c1.015,0.467,2.1,0.329,3.256-0.411
		s1.908-1.9,2.258-3.48l0.748-3.368C83.226,31.981,81.961,31.823,80.331,32.455z"/>
	<path d="M100.938,5.634c0.532-0.499,1.164-0.748,1.896-0.748c3.51,0.232,5.364,2.278,5.563,6.137c0,4.358-2.054,9.373-6.162,15.045
		l-5.889,8.009c1.364,2.396,2.969,3.643,4.815,3.743c0.815,0.016,2.212-1.156,4.191-3.519c1.098-0.282,1.506,0.324,1.223,1.821
		c-2.312,2.445-4.096,3.688-5.352,3.73c-1.256,0.041-2.558-0.396-3.904-1.311c0.964,4.907,0.731,9.548-0.699,13.922
		C94.859,57.488,92.888,60,90.709,60c-1.613,0-2.419-1.073-2.419-3.219c0-0.698,0.082-1.514,0.249-2.445l3.692-16.467
		c-1.414-0.665-1.705-1.422-0.873-2.27l2.345-2.271l4.516-20.059C99.134,9.044,100.04,6.5,100.938,5.634z M94.701,37.171
		l-3.942,17.44c-0.365,1.796-0.382,2.752-0.05,2.869c0.649,0.183,1.352-0.433,2.108-1.847s1.405-2.919,1.946-4.516
		c0.54-1.597,0.873-3.311,0.998-5.14c0.125-1.83,0.021-3.734-0.313-5.714L94.701,37.171z M103.583,7.281
		c-0.831-0.15-1.472,0.599-1.921,2.246l-4.74,19.785c1.098-1.447,2.395-3.273,3.892-5.477c1.497-2.204,2.657-4.233,3.48-6.088
		c0.824-1.854,1.34-3.468,1.547-4.84c0.208-1.372,0.15-2.595-0.174-3.667C105.342,8.167,104.647,7.514,103.583,7.281z"/>
	<path d="M109.871,17.136c0.881,0.033,1.28,0.341,1.197,0.923l-0.923,4.69l4.191,0.025c0.914-0.033,1.33,0.333,1.247,1.098
		c0,0.882-0.433,1.323-1.297,1.323h-4.791l-2.395,10.854c-0.616,2.727-0.274,4.158,1.022,4.291c0.599,0.05,1.563-0.462,2.895-1.535
		c1.33-1.072,3.002-2.607,5.015-4.603c0.965-0.316,1.447,0.05,1.447,1.098c0,0.183-0.033,0.374-0.1,0.573
		c-2.263,2.213-4.517,4.158-6.762,5.839c-1.031,0.731-2.154,1.122-3.368,1.173c-1.913-0.051-2.936-1.273-3.069-3.668
		c0-1.164,0.3-2.969,0.898-5.414l3.493-15.793C108.723,17.427,109.155,17.136,109.871,17.136z"/>
	<path d="M125.764,5.036c3.044,0.117,4.757,2.229,5.14,6.337c0.066,4.474-1.971,9.489-6.112,15.044l-6.088,8.458l-0.35,2.869
		c-0.166,1.631,0.308,2.471,1.422,2.521c0.865-0.066,1.609-0.462,2.233-1.185c0.624-0.725,1.14-1.443,1.547-2.158
		c0.407-0.716,0.811-1.598,1.21-2.645c0.433-1.531,0.574-2.945,0.424-4.242c-0.083-0.749,0.233-1.214,0.948-1.397
		c0.882-0.133,1.414,0.357,1.597,1.472c0.233,1.164,0.532,2.05,0.898,2.657s0.79,1.156,1.272,1.646s0.989,0.578,1.521,0.262
		c0.616-0.465,1.007-0.332,1.173,0.399c0.017,0.1,0.025,0.208,0.025,0.324c0,0.366-0.075,0.731-0.225,1.099
		c-0.932,0.881-1.813,1.122-2.645,0.723c-1.098-0.549-1.979-1.414-2.645-2.595c-0.516,1.78-1.115,3.219-1.797,4.316
		s-1.613,2.112-2.794,3.044c-1.115,0.665-2.104,0.998-2.97,0.998c-0.881,0-1.696-0.299-2.444-0.898
		c-1.064-0.799-1.556-2.287-1.473-4.466c-0.698-0.466-1.048-0.965-1.048-1.497c0-0.332,0.133-0.674,0.399-1.023l1.322-1.422
		l4.466-20.034c1.015-4.558,1.854-7.127,2.521-7.709C123.959,5.352,124.782,5.052,125.764,5.036z M126.163,7.531
		c-0.832-0.15-1.473,0.599-1.922,2.246l-4.74,19.785c1.098-1.447,2.396-3.273,3.893-5.477c1.497-2.204,2.657-4.233,3.48-6.088
		s1.339-3.468,1.547-4.84c0.208-1.372,0.149-2.595-0.175-3.667S127.228,7.764,126.163,7.531z"/>
	<path d="M136.118,30.023c0.864-0.324,1.788-0.495,2.769-0.512c0.932,0,1.764,0.258,2.495,0.773
		c0.516,0.399,0.766,0.899,0.749,1.497c-0.017,0.6-0.208,1.189-0.574,1.771c-0.948,1.248-2,2.096-3.156,2.545
		c-1.155,0.449-2.166,0.707-3.031,0.773s-1.688-0.016-2.47-0.249c-0.149,0.782-0.138,1.505,0.037,2.171
		c0.175,0.665,0.628,1.156,1.36,1.472c0.914,0.333,1.829,0.462,2.744,0.387s2.021-0.429,3.318-1.06
		c2.146-1.465,4.142-3.203,5.987-5.215c0.932-0.25,1.397,0.049,1.397,0.898c0,0.199-0.024,0.432-0.074,0.698
		c-1.979,2.028-4.018,3.833-6.113,5.414c-1.414,0.964-3.193,1.479-5.339,1.547c-1.697-0.017-2.907-0.283-3.631-0.799
		c-0.723-0.516-1.222-1.035-1.496-1.56c-0.274-0.523-0.445-1.343-0.512-2.457c0-1.497,0.324-2.877,0.973-4.142
		c0.582-1.031,1.272-1.867,2.071-2.508C134.421,30.83,135.253,30.347,136.118,30.023z M136.367,32.081
		c-1.197,0.482-2.162,1.405-2.895,2.77c2.146,0.3,3.806,0.009,4.978-0.873c1.173-0.882,1.609-1.58,1.311-2.096
		C139.278,31.25,138.147,31.316,136.367,32.081z"/>
	<path d="M150.563,30.023c0.865-0.324,1.788-0.495,2.77-0.512c0.932,0,1.764,0.258,2.495,0.773c0.516,0.399,0.765,0.899,0.748,1.497
		c-0.017,0.6-0.208,1.189-0.573,1.771c-0.948,1.248-2,2.096-3.156,2.545s-2.167,0.707-3.031,0.773
		c-0.865,0.066-1.688-0.016-2.471-0.249c-0.149,0.782-0.137,1.505,0.038,2.171c0.175,0.665,0.628,1.156,1.359,1.472
		c0.915,0.333,1.83,0.462,2.744,0.387c0.915-0.075,2.021-0.429,3.318-1.06c2.146-1.465,4.142-3.203,5.988-5.215
		c0.932-0.25,1.397,0.049,1.397,0.898c0,0.199-0.025,0.432-0.075,0.698c-1.979,2.028-4.017,3.833-6.112,5.414
		c-1.414,0.964-3.193,1.479-5.34,1.547c-1.696-0.017-2.906-0.283-3.63-0.799s-1.223-1.035-1.497-1.56
		c-0.274-0.523-0.444-1.343-0.512-2.457c0-1.497,0.325-2.877,0.974-4.142c0.582-1.031,1.272-1.867,2.07-2.508
		C148.867,30.83,149.698,30.347,150.563,30.023z M150.813,32.081c-1.198,0.482-2.163,1.405-2.895,2.77
		c2.146,0.3,3.805,0.009,4.978-0.873s1.609-1.58,1.31-2.096C153.724,31.25,152.593,31.316,150.813,32.081z"/>
	<path d="M163.537,29.063c0.433-0.333,0.865-0.499,1.298-0.499c0.149,0,0.3,0.017,0.449,0.05c0.615,0.149,0.915,0.499,0.898,1.048
		c2.229-0.299,3.634-0.167,4.216,0.399c0.549,0.583,0.607,1.831,0.175,3.743c-0.682,2.762-0.985,4.541-0.91,5.34
		c0.074,0.798,0.395,1.205,0.96,1.223c0.532-0.018,1.318-0.491,2.358-1.423c1.039-0.932,2.532-2.387,4.479-4.366
		c0.997-0.316,1.496-0.017,1.496,0.898c0,0.216-0.024,0.424-0.074,0.623c-2.195,2.246-3.967,3.976-5.314,5.189
		c-1.348,1.198-2.445,1.797-3.293,1.797c-1.115-0.033-1.913-0.441-2.396-1.223c-0.565-1.031-0.757-2.395-0.574-4.092
		c0.083-0.698,0.337-1.821,0.761-3.368c0.425-1.547,0.578-2.47,0.462-2.769c-0.149-0.316-0.998-0.35-2.545-0.101l-4.766,5.515
		c-0.947,0.115-1.422-0.35-1.422-1.398l3.768-4.44c-0.35-0.233-0.528-0.553-0.536-0.96C163.018,29.84,163.188,29.445,163.537,29.063
		z"/>
	<polygon points="58.102,38.961 56.612,36.547 58.883,34.574 60.657,35.662 	"/>
</g>
<path fill="#00D1B2" d="M15.646,17.385c-0.388-5.96-1.28-10.927-2.455-13.899L8.073,3.47c-1.178,2.926-2.091,7.797-2.523,13.65
	c-0.143,1.963-0.915,3.85-2.276,5.271c-1.254,1.307-2.028,3.077-2.042,5.031L1.044,56.68c-0.01,1.563,1.25,2.842,2.817,2.851
	l12.886,0.083c1.566,0.009,2.843-1.252,2.854-2.815l0.188-29.254c0.013-1.908-0.702-3.647-1.885-4.958
	C16.602,21.137,15.772,19.327,15.646,17.385"/>
<path fill="#FFFFFF" d="M6.789,57.873c-1.566-0.011-2.828-1.287-2.818-2.854l0.183-27.584c0.013-1.955,0.788-3.724,2.04-5.033
	c1.363-1.42,2.133-3.306,2.279-5.271c0.432-5.853,0.3-10.729,1.479-13.655l4.702,0.017c0-0.001,0-0.001,0-0.002L9.533,3.475
	c-1.179,2.926-2.091,7.798-2.522,13.652c-0.146,1.963-0.916,3.848-2.278,5.269c-1.252,1.308-2.028,3.078-2.042,5.033L2.511,55.015
	c-0.01,1.563,1.25,2.842,2.816,2.853"/>
<path fill="#00D1B2" d="M13.633,4.259L7.703,4.237c-0.426-0.001-0.771-0.349-0.77-0.775c0.001-0.427,0.348-0.771,0.775-0.77
	l5.93,0.023c0.427,0.001,0.772,0.348,0.771,0.775C14.408,3.916,14.061,4.261,13.633,4.259"/>
<rect x="7.456" y="1.444" transform="matrix(1 0.0037 -0.0037 1 0.0097 -0.0397)" fill="#00D1B2" width="6.436" height="2.295"/>
<path fill="#00D1B2" d="M13.692,2.218L7.659,2.196c-0.293-0.002-0.529-0.24-0.528-0.531l0.001-0.336
	C7.135,0.591,7.735-0.003,8.472,0l4.423,0.016c0.738,0.004,1.333,0.603,1.331,1.34l-0.001,0.336
	C14.224,1.982,13.984,2.22,13.692,2.218"/>
</svg>
